<svg width="123" height="18" viewBox="0 0 123 18" fill="none" xmlns="http://www.w3.org/2000/svg">
<path d="M120.885 3.52381L122.019 0.933439H114.608L113.691 2.99335C113.62 3.17747 113.491 3.33032 113.328 3.42701C113.151 3.52139 112.954 3.56667 112.757 3.55866H112.699L111.76 5.68827H112.488L111.397 8.21669C111.364 8.31349 111.331 8.41029 111.295 8.50709V8.52645V8.54968L108.967 13.8892C108.839 14.2036 108.77 14.5416 108.764 14.8843C108.759 15.1808 108.828 15.4735 108.964 15.7323C109.087 15.9937 109.268 16.2195 109.491 16.3905C110.201 16.9526 111.069 17.2432 111.953 17.2152H114.953C115.259 17.1804 115.848 17.1417 116.71 17.0333H116.757L117.848 14.4739H117.71C117.361 14.4929 117.012 14.443 116.681 14.3267C116.591 14.293 116.511 14.2357 116.448 14.1602C116.401 14.095 116.376 14.0142 116.379 13.9318C116.382 13.8354 116.403 13.7405 116.441 13.653L119.954 5.68827H121.703L122.678 3.52381H120.885ZM12.3067 10.2146L12.2812 10.2689L10.9138 13.4555C10.8936 13.5108 10.8564 13.5572 10.8084 13.5872C10.717 13.6489 10.6194 13.6995 10.5174 13.7382C10.2456 13.8433 9.95923 13.8996 9.67006 13.9047C9.40306 13.9347 9.13503 13.8589 8.91726 13.6917C8.87362 13.6569 8.85907 13.6298 8.85907 13.6027C8.85928 13.5799 8.86701 13.558 8.88089 13.5407L12.714 4.39502C12.8198 4.23286 12.9754 4.11509 13.154 4.06202C13.4138 3.96254 13.6892 3.91782 13.965 3.93037C14.239 3.91053 14.5125 3.97362 14.7542 4.11236C14.7742 4.13527 14.7925 4.15987 14.8088 4.18593C14.8121 4.19727 14.8121 4.20943 14.8088 4.22078C14.8088 4.22078 14.8088 4.22078 14.7906 4.26337L13.805 6.66014H23.1223L23.7297 5.25847L24.7297 2.87719L24.6716 2.83072C24.3479 2.54807 24.0206 2.30413 23.6969 2.05632C22.9218 1.56437 22.0971 1.16692 21.2385 0.871486C19.2795 0.28536 17.2507 0.0062252 15.2161 0.0428761H14.4887C12.28 -0.00993845 10.0799 0.353158 7.98989 1.11542C6.12425 1.81238 4.96777 2.71069 4.49863 3.79873L0.174563 13.9705C0.0636635 14.2379 0.00430326 14.5262 0 14.8185C0.0059108 15.1997 0.134254 15.5673 0.363673 15.86C0.647034 16.2201 0.999108 16.5118 1.3965 16.7158C2.62208 17.4592 4.52045 17.7999 6.99343 17.7999H7.74259C9.63715 17.7775 11.5275 17.604 13.3977 17.2811C15.3413 16.9676 17.2651 16.5279 19.1583 15.9646H19.1983L19.8056 14.5165C19.8444 14.3848 19.8881 14.2557 19.9365 14.1292L20.413 13.0606L21.6094 10.2146H12.3067ZM39.1276 9.09564L39.233 8.86719L39.7858 7.60104C39.8269 7.47664 39.8478 7.34571 39.8476 7.21384C39.8477 7.00082 39.784 6.79332 39.6658 6.62142C39.5239 6.41343 39.3462 6.23605 39.1421 6.0987C38.9503 5.95593 38.7426 5.83889 38.5239 5.75022C37.4328 5.24686 35.9491 4.97582 34.0907 4.97582H32.4542C31.8141 4.97582 31.2431 5.01841 30.6358 5.05326C29.5165 5.15803 28.4108 5.38906 27.3373 5.74248C26.7022 5.95551 26.0921 6.24521 25.5189 6.60593C25.114 6.84426 24.7849 7.20549 24.5734 7.64363L22.3913 12.5224L21.8604 13.7227L21.2639 15.1011C21.2465 15.1785 21.238 15.2578 21.2385 15.3373C21.2438 15.6188 21.3475 15.888 21.5294 16.0924C21.7679 16.3584 22.0534 16.5716 22.3695 16.7196C22.4057 16.7417 22.445 16.7573 22.4859 16.7661L22.5732 16.7971C23.6642 17.3353 25.1516 17.5715 26.97 17.5715H28.6429C29.2498 17.5841 29.8569 17.5596 30.4612 17.4979C31.5809 17.3977 32.6876 17.1732 33.7634 16.828C35.2181 16.3169 36.1309 15.74 36.52 15.0314L38.4548 10.6018L39.1276 9.09564ZM32.7378 7.93403L30.4358 13.1419L29.8503 14.5358C29.7903 14.6263 29.7009 14.6898 29.5993 14.7139C29.405 14.7694 29.204 14.7942 29.0029 14.7875C28.8237 14.7867 28.6453 14.762 28.4719 14.7139C28.4444 14.6934 28.4189 14.67 28.3956 14.6442C28.3943 14.6352 28.3943 14.6261 28.3956 14.6171L30.6722 9.4325L31.2904 8.03083C31.3122 7.97663 31.3886 7.9108 31.5377 7.86047C31.7454 7.8033 31.9596 7.77724 32.1741 7.78303C32.3309 7.77908 32.4874 7.79731 32.6396 7.83723C32.673 7.84987 32.7047 7.86677 32.7342 7.88757C32.7342 7.88757 32.7342 7.90693 32.7342 7.9108C32.7338 7.924 32.7286 7.93651 32.7196 7.94565L32.7378 7.93403ZM93.373 7.12478C93.3578 6.88472 93.2863 6.65255 93.1649 6.44959C93.0436 6.24663 92.8763 6.07937 92.6784 5.96318C92.5614 5.90695 92.4494 5.83956 92.3438 5.76184C91.431 5.24686 90.049 4.98743 88.2343 4.98743H87.6815C86.3398 4.98886 85.001 5.11845 83.6811 5.37463C82.5918 5.59071 81.5204 5.89887 80.4771 6.29617C79.9786 6.48416 79.4926 6.70796 79.0225 6.96603H78.9934L77.986 9.21954H84.8485L85.3067 8.13151C85.3292 8.08497 85.3648 8.04707 85.4086 8.02309C85.4851 7.97564 85.5654 7.93547 85.6486 7.90306C85.8402 7.83333 86.0433 7.80696 86.245 7.82562C86.3382 7.81874 86.4318 7.81874 86.525 7.82562C86.5872 7.83289 86.6451 7.86302 86.6887 7.9108H86.7105C86.7326 7.91844 86.7526 7.93174 86.7687 7.94952C86.7687 7.94952 86.7687 7.94952 86.7687 7.98437C86.7711 8.00235 86.7711 8.0206 86.7687 8.03858L86.2195 9.32796L83.5866 9.96297L79.6516 10.8845C78.8194 11.0907 78.017 11.415 77.2659 11.8486C76.7478 12.1398 76.2734 12.5117 75.8585 12.9522C75.6028 13.2169 75.3825 13.5179 75.2039 13.8466C75.052 14.1816 74.9689 14.5472 74.9602 14.9191C74.9671 15.2302 75.0465 15.5346 75.1912 15.805C75.3359 16.0753 75.5415 16.3031 75.7894 16.4679V16.5067L75.8258 16.5376C76.7022 17.1843 78.0878 17.5211 80.0189 17.5211C80.5915 17.4915 81.1615 17.4191 81.7245 17.3043C82.0257 17.2546 82.3234 17.1835 82.6155 17.0913C82.7182 17.0575 82.819 17.0174 82.9174 16.9713L82.8374 17.1843H89.1035L93.2566 7.68622C93.3333 7.51033 93.373 7.31872 93.373 7.12478ZM84.2448 13.9395C84.2016 13.9867 84.1496 14.0236 84.0921 14.0479C83.9451 14.1147 83.793 14.1678 83.6375 14.2067L83.4484 14.2532H83.3902H83.372C82.9982 14.2944 82.6209 14.2261 82.281 14.0557C82.2337 14.0289 82.1937 13.9895 82.165 13.9413C82.1363 13.8931 82.1199 13.8378 82.1173 13.7808C82.1193 13.7157 82.1355 13.6521 82.1646 13.5949C82.3064 13.3006 82.6846 13.0141 83.3393 12.8205L83.5684 12.7392C83.9866 12.6618 84.4375 12.5572 84.8885 12.4488L84.2448 13.9395ZM79.8225 0.941183H73.0146L72.8909 1.22771L72.6473 1.77754L71.5053 4.39889H78.3424L79.8225 0.941183ZM69.6397 3.79098L69.7452 3.54317L70.8907 0.941183H64.1446L62.1735 5.44433C61.1134 5.23076 60.0375 5.11931 58.9586 5.11134H58.3877C57.2217 5.11103 56.0682 5.36537 54.9982 5.85864C53.9072 6.34264 53.2381 6.96216 52.8853 7.68622L49.765 14.8146C49.6676 15.016 49.6153 15.2386 49.6122 15.4651C49.6216 15.6934 49.6857 15.9154 49.7983 16.1099C49.911 16.3044 50.0685 16.465 50.2559 16.5764C50.4093 16.7054 50.5781 16.8122 50.7578 16.8939C51.5269 17.1867 52.342 17.3182 53.1581 17.2811C54.0163 17.2811 54.7946 17.2385 55.4856 17.192C56.1838 17.1068 56.7148 17.0216 57.1221 16.9752C57.2663 16.9984 57.4006 17.0672 57.5076 17.1726H57.5294H63.7773L64.141 16.3363L69.1888 4.77835L69.6397 3.79098ZM60.9479 8.21669L58.3004 14.2028C58.2261 14.3563 58.1058 14.479 57.9585 14.5513C57.7519 14.6395 57.5301 14.6804 57.3076 14.6713C57.1508 14.6794 56.9941 14.6558 56.8457 14.6016C56.8117 14.5864 56.7817 14.5624 56.7584 14.5319C56.7405 14.5093 56.7314 14.4802 56.733 14.4506C56.7372 14.3934 56.7533 14.3378 56.7802 14.288L59.4387 8.16635C59.543 8.01132 59.6851 7.8895 59.8496 7.814C60.0339 7.73616 60.2297 7.69419 60.4279 7.6901C60.5226 7.68616 60.6173 7.69925 60.7079 7.72882C60.7775 7.75242 60.8376 7.80013 60.8788 7.86434C60.9051 7.88717 60.926 7.9162 60.9399 7.94914C60.9538 7.98207 60.9603 8.018 60.9588 8.05407C60.9646 8.1082 60.9634 8.16291 60.9552 8.21669H60.9479ZM70.7671 6.05224L70.7453 6.10644L65.8975 17.2036H72.7455L77.6114 6.05224H70.7671ZM109.913 7.63976C109.951 7.50544 109.971 7.36585 109.971 7.22546C109.972 6.97866 109.895 6.73863 109.753 6.54398C109.662 6.36855 109.528 6.22366 109.364 6.1258C108.771 5.63793 107.836 5.4211 106.498 5.4211C105.512 5.42177 104.527 5.48642 103.549 5.6147L101.541 5.84702C101.05 5.89736 100.737 5.92446 100.617 5.92446C100.544 5.92582 100.471 5.91803 100.399 5.90123C100.355 5.89212 100.313 5.87076 100.279 5.83928C100.257 5.82569 100.239 5.80723 100.224 5.78517C100.21 5.76311 100.2 5.73797 100.195 5.7115C100.193 5.70261 100.193 5.69328 100.195 5.6844L100.261 5.54887H95.9514L90.8236 17.2036H97.588L101.443 8.43352C101.518 8.26842 101.647 8.13871 101.807 8.06955C102.009 7.975 102.229 7.93002 102.45 7.93791C102.588 7.92983 102.726 7.95497 102.854 8.01147C102.887 8.02758 102.914 8.05306 102.934 8.08504C102.95 8.11159 102.957 8.14272 102.956 8.1741C102.954 8.23744 102.939 8.29959 102.912 8.35608L99.0099 17.2036H105.771L107.491 13.2542L107.523 13.1574V13.0993L109.895 7.67848L109.913 7.63976ZM51.267 9.03368L52.9071 5.28558H52.7689C52.412 5.27784 52.0551 5.29206 51.6997 5.32817C51.0888 5.37463 50.6087 5.41723 50.1359 5.50241C49.7465 5.60912 49.3629 5.73838 48.9867 5.88961L48.874 5.52951H42.3933L41.2623 8.13151C41.228 8.24345 41.1879 8.35332 41.1423 8.46063L40.6295 9.57577L39.9022 11.2175L37.9783 15.6471C37.9783 15.6819 37.9347 15.7206 37.9093 15.7671L37.2874 17.192H44.1317L47.0665 10.4934C47.2053 10.2236 47.3953 9.9875 47.6244 9.80017C47.8536 9.61285 48.1169 9.4784 48.3976 9.4054C49.3107 9.11839 50.2608 8.9877 51.2124 9.0182L51.267 9.03368Z" fill="white"/>
</svg>
