<svg width="11" height="19" viewBox="0 0 11 19" fill="none" xmlns="http://www.w3.org/2000/svg">
<path d="M9.95301 0.00388391L7.52782 0C4.80319 0 3.04242 1.80311 3.04242 4.59389V6.71198H0.603995C0.393286 6.71198 0.222656 6.88249 0.222656 7.0928V10.1617C0.222656 10.372 0.39348 10.5423 0.603995 10.5423H3.04242V18.286C3.04242 18.4964 3.21305 18.6667 3.42376 18.6667H6.60521C6.81592 18.6667 6.98655 18.4962 6.98655 18.286V10.5423H9.83764C10.0483 10.5423 10.219 10.372 10.219 10.1617L10.2201 7.0928C10.2201 6.99182 10.1799 6.89511 10.1085 6.82365C10.0371 6.75218 9.93978 6.71198 9.83861 6.71198H6.98655V4.91645C6.98655 4.05345 7.19259 3.61534 8.3189 3.61534L9.95262 3.61476C10.1631 3.61476 10.3338 3.44425 10.3338 3.23413V0.384507C10.3338 0.174582 10.1633 0.0042723 9.95301 0.00388391Z"/>
</svg>
