<svg width="120" height="114" viewBox="0 0 120 114" fill="none" xmlns="http://www.w3.org/2000/svg">
<path d="M40.9627 94.0521C40.5968 94.6347 40.1448 95.0688 39.6065 95.3543C39.0683 95.6398 38.5015 95.7751 37.9063 95.7603C37.2975 95.7369 36.7221 95.5551 36.1801 95.2147C35.7464 94.9425 35.3689 94.611 35.0475 94.2202C34.7261 93.8294 34.4862 93.4143 34.3277 92.9747C34.1471 92.5401 34.0802 92.1202 34.1268 91.715L32.5952 94.154C32.7248 94.6698 33.0077 95.197 33.4441 95.7356C33.8806 96.2741 34.4308 96.7519 35.0947 97.1688C36.0568 97.7729 37.0559 98.1074 38.092 98.1724C39.106 98.2423 40.0664 98.0519 40.973 97.601C41.8661 97.1415 42.6147 96.4308 43.2188 95.4687C43.8144 94.5202 44.1294 93.5372 44.1637 92.5197C44.176 91.5072 43.9347 90.5527 43.4396 89.6562C42.9225 88.7647 42.183 88.0169 41.2209 87.4128C40.557 86.9958 39.8919 86.701 39.2257 86.5283C38.5511 86.3692 37.9448 86.3569 37.4069 86.4914L35.8881 88.9101C36.2243 88.7056 36.6248 88.5792 37.0896 88.531C37.5545 88.4828 38.0327 88.5186 38.5242 88.6384C39.0158 88.7581 39.4852 88.9584 39.9323 89.2392C40.4743 89.5795 40.8923 90.012 41.1863 90.5367C41.4583 91.0664 41.5826 91.6357 41.5592 92.2445C41.5274 92.8669 41.3286 93.4694 40.9627 94.0521Z" fill="#FFCD00"/>
<path d="M23.1612 85.7386L32.7277 80.2283L31.458 78.0239L21.8915 83.5342L23.1612 85.7386ZM19.867 80.0195L26.1902 81.8613L29.182 74.0725L27.6127 71.3481L24.609 79.1161L18.2858 77.2744L19.867 80.0195Z" fill="#FFCD00"/>
<path d="M31.3121 62.8255L14.9926 62.6961L14.9719 65.312L31.2914 65.4414L31.3121 62.8255ZM20.585 53.5962C19.353 53.5864 18.3031 53.8261 17.4352 54.3152C16.5673 54.8043 15.9061 55.4551 15.4516 56.2675C14.9812 57.0798 14.7421 57.966 14.7345 58.9259C14.7289 59.6299 14.8599 60.271 15.1273 60.8491C15.3948 61.4112 15.783 61.9023 16.2916 62.3224C16.7845 62.7263 17.39 63.0431 18.1082 63.2728C18.8105 63.4864 19.6096 63.5967 20.5056 63.6038C21.4016 63.6109 22.2104 63.5134 22.932 63.3111C23.6378 63.0927 24.2482 62.7855 24.7634 62.3896C25.2627 61.9775 25.6505 61.4926 25.9269 60.9347C26.2035 60.3609 26.3446 59.722 26.3502 59.018C26.3578 58.0581 26.1408 57.1683 25.6993 56.3488C25.2418 55.5291 24.583 54.8679 23.723 54.3651C22.8629 53.8622 21.8169 53.6059 20.585 53.5962ZM20.5637 56.2841C21.2996 56.2899 21.9224 56.4468 22.432 56.7549C22.9416 57.0629 23.3304 57.466 23.5984 57.9642C23.8665 58.4623 23.9981 59.0154 23.9933 59.6234C23.9904 59.9914 23.9154 60.3668 23.7683 60.7496C23.6054 61.1163 23.3788 61.4506 23.0884 61.7523C22.798 62.054 22.436 62.2991 22.0025 62.4877C21.5691 62.6602 21.0724 62.7443 20.5125 62.7399C19.9525 62.7354 19.4572 62.6435 19.0266 62.4641C18.5961 62.2687 18.2381 62.0178 17.9525 61.7115C17.667 61.4053 17.4536 61.0676 17.3126 60.6984C17.1556 60.3132 17.0786 59.9366 17.0815 59.5686C17.0863 58.9606 17.2267 58.4097 17.5026 57.9158C17.7785 57.422 18.1737 57.0251 18.6881 56.7252C19.2025 56.4253 19.8277 56.2782 20.5637 56.2841Z" fill="#FFCD00"/>
<path d="M23.304 44.0473C24.2487 44.649 25.2297 44.9703 26.247 45.0112C27.2594 45.03 28.2154 44.7948 29.1151 44.3055C30.0099 43.7941 30.7581 43.0661 31.3598 42.1214C31.97 41.1633 32.3134 40.1774 32.3899 39.1638C32.4529 38.1416 32.2575 37.1825 31.8038 36.2865C31.3452 35.3684 30.6436 34.6086 29.6989 34.0069C28.7408 33.3966 27.7555 33.0821 26.7431 33.0633C25.7393 33.031 24.7943 33.2638 23.9081 33.7617C23.0085 34.2509 22.2535 34.9747 21.6432 35.9328C21.0415 36.8775 20.7049 37.8677 20.6333 38.9033C20.5569 39.9169 20.7412 40.8785 21.1863 41.788C21.64 42.684 22.3459 43.4371 23.304 44.0473ZM24.7352 41.8004C24.1549 41.4308 23.7262 40.987 23.449 40.469C23.1584 39.9425 23.0248 39.3927 23.0484 38.8196C23.0584 38.2379 23.2311 37.684 23.5663 37.1576C23.9015 36.6313 24.3305 36.2407 24.8534 35.9856C25.3628 35.722 25.9175 35.6105 26.5175 35.6513C27.1041 35.6834 27.6875 35.8843 28.2678 36.2539C28.8481 36.6234 29.2836 37.0715 29.5742 37.5981C29.8513 38.116 29.9849 38.6659 29.9748 39.2475C29.9513 39.8206 29.7719 40.3703 29.4367 40.8966C29.1015 41.4229 28.6792 41.8179 28.1698 42.0815C27.647 42.3366 27.0923 42.448 26.5057 42.4159C25.9056 42.3752 25.3155 42.17 24.7352 41.8004Z" fill="#FFCD00"/>
<path d="M44.482 17.6517L35.3598 21.9963L38.301 28.1717C38.6174 28.8362 38.6718 29.3597 38.4641 29.7421C38.2639 30.1033 37.9472 30.3871 37.5138 30.5935L38.5252 32.7169C39.4641 32.2697 40.1568 31.7892 40.6032 31.2753C41.0427 30.747 41.2721 30.1681 41.2913 29.5387C41.3037 28.8948 41.1241 28.1829 40.7526 27.4028L38.6886 23.0692L43.2172 20.9124L46.9323 28.7128L49.2291 27.6189L44.482 17.6517Z" fill="#FFCD00"/>
<path d="M59.1076 15.0555L58.0014 26.0399L60.6042 26.302L61.7104 15.3176L59.1076 15.0555ZM60.326 21.1603L63.4781 21.4777C63.8601 21.5162 64.1721 21.6119 64.414 21.7649C64.6734 21.9036 64.8556 22.0908 64.9605 22.3265C65.0829 22.5479 65.1289 22.8098 65.0984 23.1123C65.068 23.4147 64.9699 23.6702 64.8042 23.8786C64.6544 24.0887 64.4377 24.2438 64.1543 24.3439C63.8883 24.4297 63.5643 24.4533 63.1823 24.4148L60.0302 24.0974L59.8162 26.2227L63.2309 26.5665C63.9951 26.6435 64.6932 26.5771 65.3254 26.3674C65.9576 26.1577 66.4761 25.7998 66.8808 25.2939C67.2856 24.7879 67.5272 24.1448 67.6058 23.3648C67.6859 22.5688 67.5757 21.9064 67.2752 21.3777C66.9763 20.833 66.5364 20.4108 65.9555 20.111C65.3746 19.8113 64.7021 19.623 63.9379 19.546L60.5232 19.2022L60.326 21.1603Z" fill="#FFCD00"/>
<path d="M90.3105 35.5399L89.3768 36.1729L91.1681 38.815C91.3477 39.0798 91.4672 39.3274 91.5267 39.5577C91.5994 39.779 91.6232 39.9852 91.5981 40.1762C91.5952 40.3715 91.5454 40.5405 91.4489 40.6833C91.3614 40.8393 91.2382 40.9712 91.0792 41.0789C90.7746 41.2854 90.4245 41.3392 90.0287 41.2402C89.642 41.1545 89.2735 40.8533 88.9234 40.3369L87.1321 37.6948L85.5429 38.7723L87.7786 42.0698C88.4879 43.1161 89.2336 43.7027 90.0156 43.8297C90.8199 43.961 91.5664 43.7932 92.255 43.3263C92.8509 42.9223 93.2157 42.4624 93.3492 41.9465C93.4828 41.4307 93.4452 40.8763 93.2364 40.2833C93.0277 39.6902 92.7078 39.0759 92.2768 38.4402L90.3105 35.5399ZM89.9132 35.8093L91.7448 38.5109C92.1309 39.0804 92.5606 39.543 93.0337 39.8988C93.5291 40.2588 94.0411 40.4723 94.5697 40.5391C95.1116 40.597 95.6408 40.4509 96.1573 40.1007C96.7532 39.6967 97.1312 39.2278 97.2912 38.694C97.4645 38.1513 97.469 37.5876 97.3047 37.0031C97.1626 36.4229 96.8985 35.8481 96.5124 35.2786L94.6808 32.577L93.0916 33.6544L94.7481 36.0978C94.9277 36.3627 95.0385 36.6258 95.0805 36.8873C95.1224 37.1488 95.0999 37.3864 95.0128 37.6001C94.939 37.8048 94.7961 37.979 94.5842 38.1227C94.4253 38.2304 94.2572 38.2961 94.0798 38.3197C93.9115 38.3565 93.7339 38.3512 93.5472 38.3038C93.3737 38.2475 93.2065 38.1578 93.0458 38.0348C92.8851 37.9118 92.7374 37.751 92.6027 37.5523L90.9462 35.109L89.9132 35.8093ZM93.8323 31.3255L84.6944 37.5208L86.1221 39.6265L95.2599 33.4312L93.8323 31.3255Z" fill="#FFCD00"/>
<path d="M97.1405 52.5329L97.6916 60.9629L99.8709 60.8204L99.3198 52.3904L97.1405 52.5329ZM103.899 59.1621L92.8828 59.8823L93.0488 62.4209L104.065 61.7007L103.899 59.1621ZM103.365 50.9955L92.349 51.7157L92.5149 54.2543L103.531 53.5341L103.365 50.9955Z" fill="#FFCD00"/>
<path d="M94.2091 83.7475L97.005 85.3892L93.3684 72.1464L90.5725 70.5048L94.2091 83.7475ZM99.8152 78.3979L101.033 76.1368L90.5725 70.5048L91.9331 74.154L99.8152 78.3979ZM97.005 85.3892L95.633 81.7611L87.7509 77.5172L86.5448 79.7572L97.005 85.3892Z" fill="#FFCD00"/>
<path d="M80.0711 92.6864C79.2631 93.1749 78.6477 93.6841 78.2248 94.2142C77.8104 94.7578 77.5783 95.2908 77.5286 95.8133C77.4652 96.3442 77.574 96.8333 77.8548 97.2805C78.1611 97.7683 78.5892 98.104 79.1391 98.2877C79.6839 98.4935 80.2929 98.5456 80.966 98.4441C81.6255 98.3512 82.2873 98.0962 82.9512 97.6793C83.6558 97.2368 84.2008 96.7057 84.5862 96.0858C84.958 95.4745 85.1509 94.8338 85.1647 94.1639C85.1871 93.5075 85.0153 92.888 84.6494 92.3053L82.5356 93.6327C82.6718 93.8495 82.7452 94.0867 82.7559 94.3445C82.7616 94.6243 82.6918 94.9043 82.5466 95.1845C82.4013 95.4646 82.1593 95.7111 81.8205 95.9238C81.536 96.1025 81.2733 96.2107 81.0326 96.2485C80.7783 96.2949 80.5459 96.2708 80.3354 96.1762C80.1334 96.0952 79.9643 95.9463 79.8282 95.7295C79.641 95.4314 79.6013 95.0974 79.709 94.7275C79.8168 94.3575 80.1417 94.0024 80.6837 93.662L80.0711 92.6864ZM76.8657 87.8977C76.134 88.3572 75.5423 88.8893 75.0908 89.494C74.6477 90.1123 74.3972 90.7514 74.3393 91.4112C74.2678 92.0796 74.4192 92.7119 74.7936 93.3081C75.1509 93.8772 75.6113 94.2494 76.1748 94.4246C76.7382 94.5997 77.3844 94.5908 78.1132 94.3976C78.8421 94.2044 79.6223 93.8372 80.4539 93.2962L79.7775 92.2189C79.3575 92.4827 78.9711 92.6497 78.6185 92.72C78.2523 92.7988 77.9309 92.7834 77.6542 92.6737C77.3775 92.564 77.1499 92.3669 76.9712 92.0824C76.801 91.8114 76.7266 91.5275 76.7481 91.2306C76.778 90.9473 76.8944 90.6664 77.0974 90.3878C77.2867 90.1178 77.5711 89.8636 77.9505 89.6254C78.5332 89.2595 79.0671 89.132 79.5524 89.2429C80.0242 89.3623 80.4394 89.6023 80.798 89.9628L82.9524 88.6099C82.2484 87.7295 81.3595 87.2014 80.2855 87.0256C79.198 86.8583 78.0581 87.149 76.8657 87.8977Z" fill="#FFCD00"/>
</svg>
