<svg width="21" height="18" viewBox="0 0 21 18" fill="none" xmlns="http://www.w3.org/2000/svg">
<path d="M20.4444 2.31308C19.692 2.64893 18.8846 2.8767 18.0363 2.97838C18.9025 2.45592 19.5655 1.62723 19.8797 0.64281C19.0672 1.12664 18.1704 1.47796 17.2148 1.66841C16.4496 0.846147 15.3611 0.333984 14.1538 0.333984C11.8376 0.333984 9.95963 2.2256 9.95963 4.5573C9.95963 4.888 9.99668 5.21099 10.0682 5.51985C6.58312 5.34353 3.49277 3.66168 1.42443 1.10605C1.06288 1.72888 0.857198 2.45461 0.857198 3.2293C0.857198 4.69499 1.59818 5.98823 2.72242 6.74485C2.03509 6.7217 1.38865 6.53125 0.822723 6.21469V6.26745C0.822723 8.31347 2.2689 10.0211 4.18647 10.4097C3.83514 10.5049 3.46467 10.5577 3.0814 10.5577C2.81058 10.5577 2.54868 10.5307 2.29189 10.4792C2.82588 12.1585 4.37428 13.3796 6.20884 13.4131C4.77415 14.5455 2.96515 15.2185 1.00031 15.2185C0.661773 15.2185 0.328314 15.1979 0 15.1606C1.85627 16.3612 4.06003 17.0613 6.42859 17.0613C14.1436 17.0613 18.3608 10.6246 18.3608 5.04244L18.3467 4.49555C19.1707 3.90358 19.8836 3.15981 20.4444 2.31308Z" />
</svg>
