<svg width="22" height="13" viewBox="0 0 22 13" fill="none" xmlns="http://www.w3.org/2000/svg">
<path d="M21.2207 11.7494C21.1952 11.6945 21.1715 11.649 21.1495 11.6125C20.7852 10.9553 20.0889 10.1486 19.0611 9.19223L19.0394 9.17033L19.0286 9.15959L19.0176 9.14858H19.0065C18.5401 8.70324 18.2447 8.4038 18.121 8.25049C17.8947 7.95845 17.844 7.66285 17.9677 7.36333C18.0551 7.13703 18.3833 6.65912 18.9517 5.92895C19.2507 5.54198 19.4875 5.23184 19.6624 4.99818C20.9235 3.31898 21.4702 2.24594 21.3025 1.77866L21.2374 1.66946C21.1936 1.60372 21.0806 1.54358 20.8986 1.48873C20.7161 1.434 20.483 1.42495 20.1986 1.46142L17.0498 1.48321C16.9987 1.4651 16.9259 1.46679 16.831 1.48873C16.7362 1.51067 16.6888 1.52168 16.6888 1.52168L16.634 1.5491L16.5905 1.58205C16.5541 1.60384 16.514 1.64215 16.4702 1.69692C16.4266 1.7515 16.3902 1.81556 16.3611 1.88855C16.0183 2.77191 15.6285 3.59322 15.1911 4.35243C14.9213 4.80513 14.6736 5.19747 14.4474 5.52967C14.2215 5.86175 14.032 6.10642 13.879 6.26326C13.7259 6.42024 13.5876 6.54601 13.4634 6.64102C13.3395 6.73606 13.2449 6.77622 13.1793 6.76153C13.1136 6.74684 13.0518 6.73227 12.9932 6.71769C12.8913 6.65195 12.8092 6.56254 12.7474 6.44939C12.6853 6.33625 12.6434 6.19383 12.6216 6.02227C12.5998 5.85059 12.587 5.70292 12.5833 5.57876C12.5799 5.45476 12.5814 5.27936 12.5888 5.05306C12.5964 4.82665 12.5998 4.67346 12.5998 4.59314C12.5998 4.31568 12.6052 4.01455 12.6161 3.68968C12.6271 3.36481 12.636 3.10741 12.6435 2.91778C12.6509 2.72796 12.6544 2.52713 12.6544 2.31541C12.6544 2.10368 12.6415 1.93764 12.6161 1.81713C12.5909 1.69677 12.5524 1.57994 12.5016 1.46668C12.4504 1.35353 12.3756 1.266 12.2774 1.20386C12.179 1.14181 12.0567 1.09256 11.9112 1.05597C11.5248 0.968401 11.0328 0.921032 10.435 0.913668C9.07924 0.899092 8.20811 0.986773 7.82178 1.17659C7.66871 1.2568 7.5302 1.36638 7.40635 1.50499C7.27511 1.66566 7.2568 1.75334 7.35155 1.76777C7.78896 1.83339 8.09863 1.99038 8.28088 2.23858L8.34655 2.3701C8.39764 2.46499 8.44865 2.63299 8.4997 2.87386C8.55067 3.11473 8.58357 3.38119 8.59805 3.67307C8.63443 4.2061 8.63443 4.66238 8.59805 5.04194C8.56155 5.42166 8.52708 5.71727 8.49419 5.92899C8.46129 6.14071 8.41212 6.31227 8.34655 6.44364C8.28088 6.57505 8.23718 6.65536 8.21528 6.68451C8.19341 6.71366 8.17518 6.73204 8.1607 6.73925C8.06596 6.77561 7.96742 6.79413 7.86544 6.79413C7.76331 6.79413 7.63946 6.74297 7.4937 6.64071C7.34799 6.53846 7.19675 6.398 7.04001 6.21911C6.88326 6.04018 6.70649 5.79014 6.50961 5.46895C6.31288 5.14776 6.10876 4.76816 5.89737 4.33014L5.72247 4.01248C5.61314 3.80812 5.46378 3.51056 5.27425 3.12006C5.08461 2.72941 4.91699 2.35154 4.77127 1.98651C4.71302 1.8332 4.62552 1.71649 4.50891 1.63617L4.45418 1.60322C4.4178 1.57407 4.3594 1.54312 4.27928 1.51013C4.19905 1.47719 4.11534 1.45356 4.02779 1.43902L1.03193 1.46081C0.725791 1.46081 0.518074 1.53027 0.4087 1.669L0.364928 1.73463C0.343061 1.77118 0.332031 1.82956 0.332031 1.90991C0.332031 1.99023 0.353898 2.0888 0.397671 2.20552C0.835012 3.23498 1.31061 4.22781 1.82447 5.18416C2.33832 6.14052 2.78486 6.91089 3.1638 7.49458C3.54281 8.0787 3.92914 8.62998 4.32279 9.14816C4.71643 9.66653 4.977 9.99873 5.10449 10.1447C5.23213 10.2909 5.33239 10.4002 5.40526 10.4732L5.67866 10.736C5.8536 10.9112 6.11049 11.1211 6.44944 11.3656C6.78848 11.6103 7.16382 11.8511 7.57566 12.0886C7.98757 12.3257 8.46677 12.5191 9.01352 12.6688C9.5602 12.8185 10.0923 12.8786 10.6099 12.8497H11.8673C12.1223 12.8276 12.3155 12.7473 12.4468 12.6087L12.4903 12.5538C12.5196 12.5102 12.5469 12.4425 12.5722 12.3514C12.5978 12.2602 12.6105 12.1596 12.6105 12.0503C12.603 11.7364 12.6269 11.4536 12.6814 11.2017C12.7359 10.9499 12.7981 10.7601 12.8675 10.6323C12.937 10.5046 13.0153 10.3968 13.1025 10.3094C13.1899 10.2218 13.2522 10.1688 13.2887 10.1505C13.325 10.1322 13.354 10.1197 13.3759 10.1122C13.5508 10.0538 13.7567 10.1104 13.9938 10.2821C14.2307 10.4537 14.453 10.6655 14.6608 10.9173C14.8686 11.1693 15.1182 11.452 15.4097 11.7658C15.7014 12.0798 15.9565 12.3132 16.1751 12.4668L16.3937 12.5982C16.5397 12.6858 16.7292 12.7662 16.9625 12.8391C17.1954 12.9121 17.3994 12.9304 17.5746 12.8939L20.3735 12.8502C20.6504 12.8502 20.8658 12.8042 21.0186 12.7131C21.1717 12.6219 21.2627 12.5214 21.292 12.412C21.3213 12.3026 21.3228 12.1784 21.2976 12.0395C21.2716 11.901 21.2461 11.8042 21.2207 11.7494Z" />
</svg>
