<svg width="100" height="18" viewBox="0 0 100 18" fill="#000" xmlns="http://www.w3.org/2000/svg">
<path d="M94.2886 4.21105C92.815 4.21105 90.9201 4.42092 90.6828 4.42092V17.5255H93.6043V13.0529C94.0306 13.123 94.4619 13.1581 94.8939 13.1578C97.5781 13.1578 99.6311 11.3952 99.6311 8.71105C99.6311 5.65884 97.3682 4.21105 94.2886 4.21105ZM94.5517 10.7109C94.2293 10.7183 93.9082 10.6668 93.6043 10.5588V6.84353C93.7563 6.81767 94.2628 6.81768 94.5517 6.81768C95.8413 6.81768 96.7097 7.4488 96.7097 8.76428C96.7097 10.0281 95.8155 10.7109 94.5517 10.7109V10.7109ZM84.6058 12.9267H87.4223V10.3946H84.6058V6.99561H88.0275V4.36769H81.7361V17.5255H88.2359V14.8946H84.6058V12.9267ZM73.974 10.8158V4.36769H71.1058V17.5255H73.974V13.2673H74.5002L77.8687 17.5255H79.0853V14.4733C78.5059 13.684 77.7425 12.6833 77.2163 11.9473C77.56 10.9496 78.0269 9.50034 78.3204 8.49966L79.5568 4.36769H76.5517L74.6051 10.8143L73.974 10.8158ZM39.8445 14.0262C38.7922 14.0262 37.0813 13.0529 37.0813 10.9466C37.0813 8.84032 38.7891 7.86854 39.8445 7.86854V14.0262ZM29.631 0L26.1058 2.02568V3.13129H30.6849V0H29.631ZM29.2888 13.8163V17.527H32.1783V4.36769H29.2888V9.69044L27.3741 12.1845H26.9011C26.9544 10.6059 27.0532 7.89439 27.0532 6.36904V4.36769H24.1637V17.5255H25.7165L28.8219 13.8148L29.2888 13.8163ZM1.86904 9.3954C1.86904 12.0264 1.52078 14.6315 0 15.1835V18C3.55255 17.632 4.65816 14.5265 4.65816 9.89422V6.69145H6.55306V17.5331H9.44255V4.36769H1.86904V9.3954ZM42.658 7.87462C43.7104 7.87462 45.4213 8.84792 45.4213 10.9542C45.4213 13.0605 43.7104 14.0262 42.658 14.0262V7.87462ZM42.658 16.3226C45.8151 16.3226 48.3427 14.1114 48.3427 10.9542C48.3427 7.79706 45.8167 5.58584 42.658 5.58584V3.78979H39.8445V5.57824C36.6874 5.57824 34.1599 7.78946 34.1599 10.9466C34.1599 14.1038 36.6859 16.315 39.8445 16.315V17.8935H42.658V16.3226ZM52.9993 7.90199C52.467 6.84353 51.6838 5.4216 51.0983 4.36769H49.8346V7.97347L51.4922 10.7109L49.6049 13.8954V17.527H50.8687L52.9978 13.5274H53.5498L55.6789 17.527H56.9427V13.8954L55.0524 10.7109L56.71 7.97347V4.36769H55.4478C54.8684 5.42007 54.0791 6.84201 53.5529 7.89439L52.9993 7.90199ZM66.002 4.36769H61.5005L57.9738 17.5255H60.9211L61.5005 15.2078H66.002L66.5814 17.524H69.5287L66.002 4.36769ZM65.3679 12.7898H62.1316L63.4745 7.23741H64.0007L65.3679 12.7898ZM19.0524 4.36769H14.5524L11.0257 17.5255H13.973L14.5524 15.2078H19.0524L19.6318 17.524H22.5791L19.0524 4.36769ZM18.4213 12.7898H15.1835L16.5264 7.23741H17.0526L18.4213 12.7898Z" />
</svg>
